<?xml version="1.0"?><svg version="1.2" baseProfile="tiny-ps" viewBox="0 0 300 300" xmlns="http://www.w3.org/2000/svg" xmlns:xlink="http://www.w3.org/1999/xlink"><title>conceptsintamil</title><g><g fill="#bee8e2" transform="matrix(.1 0 0 -.1 0 300)"><path d="M1335 2994c-118-18-213-39-295-66-524-171-909-608-1017-1153l-18-90v-370l18-90C144 613 613 144 1225 23l90-18h370l90 18c612 121 1081 590 1202 1202l18 90v370l-18 90c-120 610-592 1083-1197 1201l-85 16-165 3c-91 2-178 1-195-1z"/></g><g fill="#f66ac4" transform="matrix(.1 0 0 -.1 0 300)"><path d="M1335 2994c-118-18-213-39-295-66-524-171-909-608-1017-1153l-18-90v-370l18-90C144 613 613 144 1225 23l90-18h370l90 18c612 121 1081 590 1202 1202l18 90v370l-18 90c-120 610-592 1083-1197 1201l-85 16-165 3c-91 2-178 1-195-1zm780-1411c4-27 7-59 8-73l2-25-125-20-125-21 2-29c1-17 5-48 8-71l6-41 102-6 103-6 55-20c104-39 165-104 195-210l16-54-4-71-5-71-23-45-23-44-51-51-52-50-68-33c-86-42-179-66-376-98-85-13-169-29-186-35l-31-9-29-31-29-30 2-70 1-69-21-5c-85-17-131-25-151-25h-23l-12 57c-6 31-11 75-11 98v41l26 53 27 53 46 30c64 40 117 54 338 89l192 30 57 19c32 11 77 31 100 45l43 26 26 43 25 43v117l-20 41-20 41-40 23-40 22-55 6-55 6v-149l-16-53-15-53-40-43-39-42-58-26-57-26-84-17-85-17-80 6-79 5-76 37c-42 20-83 40-91 45l-15 7-17 44-17 44 1 50c0 28 3 61 7 75l7 25h14c8 0 38 23 65 51l50 50-16 115c-9 63-19 139-23 170l-7 56 143 22c150 24 671 98 700 100l17 1 6-47zm-430-505c-10-52-37-111-64-140l-25-28h17c10 0 29 8 44 17l26 17 13 33 14 32v101h-9c-5 0-12-15-16-32z"/></g><g fill="#428f82" transform="matrix(.1 0 0 -.1 0 300)"><path d="M1335 2994c-118-18-213-39-295-66-524-171-909-608-1017-1153l-18-90v-370l18-90C144 613 613 144 1225 23l90-18h370l90 18c612 121 1081 590 1202 1202l18 90v370l-18 90c-120 610-592 1083-1197 1201l-85 16-165 3c-91 2-178 1-195-1zm-34-377c20-8 55-32 78-52l40-37 26-53c13-29 31-79 40-110 16-63 58-326 52-331-4-4-143-30-195-37l-34-4-9 21c-4 12-18 77-29 146-28 166-35 196-54 225l-16 24-36 10-37 10-48-10-49-11-26-31-27-32 6-80c12-165 170-1101 202-1193l5-13 52 53 53 53-22 155c-12 85-22 162-22 171l-1 16 138 22c75 12 254 37 397 56 143 20 274 38 292 41l31 6 7-49c4-26 7-59 8-73l2-25-125-20-125-21 2-29c1-17 5-48 8-71l6-41 102-6 103-6 55-20c104-39 165-104 195-210l16-54-4-71-5-71-23-45-23-44-51-51-52-50-68-33c-86-42-179-66-376-98-85-13-169-29-186-35l-31-9-29-31-29-30 2-70 1-69-21-5c-85-17-131-25-151-25h-23l-12 57c-6 31-11 75-11 98v41l26 53 27 53 46 30c64 40 117 54 338 89l192 30 57 19c32 11 77 31 100 45l43 26 26 43 25 43v117l-20 41-20 41-40 23-40 22-55 6-55 6v-149l-16-53-15-53-40-43-39-42-58-26-57-26-84-17-85-17-80 6-79 5-71 36-71 36h-90l-40 19-41 18-42 48-41 47-20 52c-26 71-42 149-111 561-70 416-110 684-110 743v43l21 62c44 131 131 196 301 227l53 9 80-3 80-4 36-15zm384-1539c-10-52-37-111-64-140l-25-28h17c10 0 29 8 44 17l26 17 13 33 14 32v101h-9c-5 0-12-15-16-32z"/></g><g fill="#7e2860" transform="matrix(.1 0 0 -.1 0 300)"><path d="M1335 2994c-118-18-213-39-295-66-524-171-909-608-1017-1153l-18-90v-370l18-90C144 613 613 144 1225 23l90-18h370l90 18c612 121 1081 590 1202 1202l18 90v370l-18 90c-120 610-592 1083-1197 1201l-85 16-165 3c-91 2-178 1-195-1zm-34-377c20-8 55-32 78-52l40-37 26-53c13-29 31-79 40-110 16-63 58-326 52-331-4-4-143-30-195-37l-34-4-9 21c-4 12-18 77-29 146-28 166-35 196-54 225l-16 24-36 10-37 10-48-10-49-11-26-31-27-32 6-80c10-136 149-978 182-1100l13-50 1 67c1 36 8 122 17 190l15 123 18 25 18 25 74 28c41 15 101 34 134 42l60 14 185 6c102 2 222 8 267 11l82 6 32-7 31-7 14-34 14-33v-98l-30-26c-35-32-36-33-10-74l19-32 55-31c30-17 75-49 100-71l45-40 33-66 32-65 4-89 4-88-30-65-31-65-47-51-48-51-62-35c-85-47-178-77-353-113l-149-31-43-20c-24-10-56-31-71-45l-28-26-6-27c-3-15-10-37-15-50l-9-23-34-14c-19-8-66-18-104-21l-69-7-22 45-22 45-5 64-6 64 25 74 24 74-4 18c-3 10-19 35-37 56-30 36-48 67-60 106l-5 17h-23c-13 0-41 9-63 19l-41 18-42 48-41 47-20 52c-26 71-42 149-111 561-70 416-110 684-110 743v43l21 62c44 131 131 196 301 227l53 9 80-3 80-4 36-15z"/></g><g fill="#312b37" transform="matrix(.1 0 0 -.1 0 300)"><path d="M1335 2994c-118-18-213-39-295-66-524-171-909-608-1017-1153l-18-90v-370l18-90C144 613 613 144 1225 23l90-18h370l90 18c612 121 1081 590 1202 1202l18 90v370l-18 90c-120 610-592 1083-1197 1201l-85 16-165 3c-91 2-178 1-195-1zm-14-346 57-26 42-42 42-42 33-72 33-71 16-79c9-43 19-120 22-170l5-91-13-25-13-25-50-18-50-19-77-5-77-6-45 47c-43 44-66 57-66 37 0-5-8-12-18-15l-19-6-2-33c0-17-2-39-3-47s1-55 6-105l7-90 20-65 21-64 19-17c10-9 19-20 19-26v-9l29-2 30-2 64 24c35 13 88 29 118 35l54 11 180 5c99 3 217 8 262 11l82 6 32-7 31-7 14-34 14-33v-98l-30-26c-35-32-36-33-10-74l19-32 55-31c30-17 75-49 100-71l45-40 33-66 32-65 4-89 4-88-30-65-31-65-47-51-48-51-62-35c-85-47-178-77-353-113l-149-31-43-20c-24-10-56-31-71-45l-28-26-6-27c-3-15-10-37-15-50l-9-23-34-14c-19-8-66-18-104-21l-69-7-22 45-22 45-5 64-6 64 25 74 24 74-4 18c-3 10-20 36-39 57l-34 40-67 27c-155 62-222 147-282 357-45 157-147 774-171 1031l-10 109 10 66c11 81 26 125 58 176 51 82 130 136 243 166l74 20 100-3 100-3 56-26z"/></g><g fill="#080609" transform="matrix(.1 0 0 -.1 0 300)"><path d="M1335 2994c-118-18-213-39-295-66-524-171-909-608-1017-1153l-18-90v-370l18-90C144 613 613 144 1225 23l90-18h370l90 18c612 121 1081 590 1202 1202l18 90v370l-18 90c-120 610-592 1083-1197 1201l-85 16-165 3c-91 2-178 1-195-1zm16-265 75-36 38-33c49-43 104-126 144-218l33-74 10-71c6-40 14-97 17-127l7-55-7-85c-4-47-9-101-12-121l-5-37 20-5 19-5-6-15-5-15 18-5c21-6 71-18 93-24 8-1 33-5 55-8 22-2 74-11 115-20l74-16 53-25 52-26 26-34c27-35 59-102 89-184 8-25 30-66 48-92s57-81 86-124l53-76 22-62 22-61-1-105V865l-22-56c-30-75-75-142-140-205l-53-53-80-46c-98-57-178-87-326-126-143-36-163-45-262-113l-82-56-56-16-56-16-48 5c-122 15-204 107-235 265l-14 74-36 54c-20 31-49 63-63 72-34 22-115 107-151 157-95 138-150 326-195 680-8 66-22 158-30 205s-22 144-31 215l-17 130 1 152v152l21 64c24 72 78 167 119 210 56 59 163 119 257 143l50 13 120-2 121-3 75-35z"/></g></g></svg>